<?xml version="1.0" encoding="UTF-8"?>
<svg width="126px" height="94px" viewBox="0 0 126 94" version="1.1" xmlns="http://www.w3.org/2000/svg" xmlns:xlink="http://www.w3.org/1999/xlink">
    <title>personal_offer_ds</title>
    <defs>
        <polygon id="path-1" points="0 90 111 90 111 0 0 0"></polygon>
    </defs>
    <g id="personal_offer_ds" stroke="none" stroke-width="1" fill="none" fill-rule="evenodd">
        <g id="Group-12" transform="translate(15.000000, 2.000000)">
            <path d="M21.3533906,43 C21.3533906,43 34.6803566,54.9973262 37.6125438,54.0271843 C40.5444126,53.0564102 40.6332378,51.2599566 38.4119707,48.5414098 C36.1907036,45.8231792 34.2362305,44.7642104 35.7465775,43.7055577 C37.2572429,42.6472211 43.1209806,47.6755843 45.5198981,47.7634629 C47.9188157,47.8519737 55.2040751,53.7626002 57.9586119,57.3792157 C60.7128303,60.9961473 64,59.4965211 64,59.4965211 L63.2893983,69.9945371 C63.2893983,69.9945371 60.0907354,70.0824157 58.135944,69.5532474 C56.1817892,69.023763 37.701369,62.5839683 34.9471506,60.6430524 C32.1926138,58.7027686 19.4877428,52.9685316 17,43.7055577 L21.3533906,43 Z" id="Fill-1" fill="#C19372"></path>
            <mask id="mask-2" fill="white">
                <use xlink:href="#path-1"></use>
            </mask>
            <g id="Clip-4"></g>
            <polygon id="Fill-3" fill="#797979" mask="url(#mask-2)" points="62 73 111 73 111 57 62 57"></polygon>
            <polygon id="Fill-5" fill="#FFFFFF" mask="url(#mask-2)" points="62 73 68 73 68 57 62 57"></polygon>
            <path d="M67,71 C67,71.5521497 66.5523696,72 65.9996018,72 C65.4476304,72 65,71.5521497 65,71 C65,70.4478503 65.4476304,70 65.9996018,70 C66.5523696,70 67,70.4478503 67,71" id="Fill-6" fill="#DBDBDB" mask="url(#mask-2)"></path>
            <polygon id="Fill-7" fill="#E9E9E9" mask="url(#mask-2)" points="73 90 92 90 92 57 73 57"></polygon>
            <polygon id="Fill-8" fill="#FFB400" mask="url(#mask-2)" points="29 23.0712724 39.2311564 21.7319953 43.9133163 12 48.5087926 21.4642038 59 23.0712724 50.9993165 30.8391438 52.9305909 42 44 36.6425715 34.0288946 42 36.2832909 30.9284076"></polygon>
            <polygon id="Fill-9" fill="#EEEEEE" mask="url(#mask-2)" points="33.8899025 0 32.2340352 6.77153826 25 7.37138469 31.0138403 11.2284617 29.3576606 18 34.7615596 13.6284617 41.3728488 17.564474 38.5092789 10.8 44 6.17138469 36.1560235 6.51415408"></polygon>
            <polygon id="Fill-10" fill="#F16E00" mask="url(#mask-2)" points="15.8738867 13 22.2525397 20.8749412 31.9517117 17.5501333 26.7087044 26.2123805 33 34.8749412 22.7766838 32.4249177 16.5727456 41 15.8738867 30.3251215 6 27 15.7865294 23.1500078"></polygon>
            <path d="M0.659507145,41 L65.340536,41 C65.9677221,41 66.2394605,41.7084119 65.7438629,42.0513014 L63.1054322,43.8769332 C62.9900148,43.9569974 62.8482796,44 62.7021053,44 L2.92092858,44 C2.75794897,44 2.60035973,43.9462467 2.47955188,43.8483591 L0.217813361,42.0227273 C-0.228636636,41.6620143 0.0570533125,41 0.659507145,41" id="Fill-11" fill="#EEEEEE" mask="url(#mask-2)"></path>
        </g>
    </g>
</svg>