<svg xmlns="http://www.w3.org/2000/svg" xmlns:xlink="http://www.w3.org/1999/xlink" width="240" height="200" viewBox="0 0 240 200">
    <defs>
        <path id="a" d="M0 0h240v200H0z"/>
    </defs>
    <g fill="none" fill-rule="evenodd">
        <mask id="b" fill="#fff">
            <use xlink:href="#a"/>
        </mask>
        <g mask="url(#b)">
            <path fill="#F16E00" d="M65.305 81.08l50.911-50.912 4.243 4.243-50.912 50.912z"/>
            <path fill="#4BB4E6" d="M103.489 4.713L154.4 55.625l-4.243 4.242L99.247 8.955zM34.912 4.713l50.912 50.912-4.243 4.242L30.67 8.955z"/>
            <path fill="#F16E00" d="M90.761 30.169l50.911 50.912-4.242 4.242-50.912-50.911z"/>
            <path fill="#4BB4E6" d="M107.731 8.955L56.82 59.867l-4.243-4.243 50.912-50.91zM39.154 8.955L15.82 31.662l-4.243-4.243L34.912 4.713z"/>
            <path fill="#FFB400" d="M80.154 61.988L69.548 72.594 58.94 61.988l10.607-10.606z"/>
            <path fill="#000" d="M114.095 28.048L103.49 38.654 92.882 28.048 103.49 17.44zM25 28.048L35.607 17.44l10.607 10.607-10.607 10.607z"/>
            <path fill="#000" d="M24.294 27.419l10.614 10.614L45.52 27.42 34.908 16.804zM56.82 45.018l-4.243 4.243-4.242-4.243 4.242-4.243zM90.761 45.018l-4.243 4.243-4.242-4.243 4.242-4.243z"/>
            <path fill="#FFB400" d="M65.306 30.168l50.91-50.91 4.244 4.241-50.912 50.913z"/>
            <path fill="#FFB400" d="M86.518-16.5l4.243-4.243 50.912 50.912-4.242 4.243zM18.212-16.5l4.243-4.243 50.912 50.912-4.242 4.243z"/>
            <path fill="#4BB4E6" d="M80.154 11.077L69.548 21.683 58.94 11.077 69.548.47z"/>
            <path fill="#F16E00" d="M133.187 182.904l50.912-50.912 4.242 4.243-50.91 50.911z"/>
            <path fill="#4BB4E6" d="M171.37 106.536l50.913 50.912-4.243 4.242-50.911-50.91z"/>
            <path fill="#F16E00" d="M158.643 131.992l50.911 50.912-4.242 4.242-50.912-50.911z"/>
            <path fill="#000" d="M181.977 129.87l-10.606 10.607-10.607-10.606 10.607-10.607z"/>
            <path fill="#FFB400" d="M133.187 131.992L184.1 81.08l4.242 4.243-50.91 50.912z"/>
            <path fill="#A885D8" d="M171.37 55.625l50.913 50.912-4.243 4.242-50.911-50.911z"/>
            <path fill="#FFB400" d="M158.643 81.08l50.911 50.912-4.242 4.242-50.912-50.91z"/>
            <path fill="#4BB4E6" d="M148.037 112.9l-10.606 10.606-10.608-10.606 10.608-10.606z"/>
            <path fill="#000" d="M181.977 78.96l-10.606 10.605-10.607-10.606 10.607-10.607zM158.643 95.93l-4.243 4.242-4.242-4.243 4.242-4.243z"/>
            <path fill="#F16E00" d="M133.187 81.08L184.1 30.168l4.242 4.243-50.91 50.912z"/>
            <path fill="#4BB4E6" d="M171.37 4.713l50.913 50.912-4.243 4.242-50.911-50.912z"/>
            <path fill="#F16E00" d="M158.643 30.169l50.911 50.912-4.242 4.242L154.4 34.412z"/>
            <path fill="#4BB4E6" d="M175.614 8.955l-50.912 50.912-4.242-4.243 50.91-50.91z"/>
            <path fill="#FFB400" d="M148.037 61.988L137.43 72.594l-10.608-10.606 10.608-10.606z"/>
            <path fill="#000" d="M181.977 28.048l-10.606 10.606-10.607-10.606 10.607-10.608zM158.643 45.018L154.4 49.26l-4.242-4.243 4.242-4.243z"/>
            <path fill="#FFB400" d="M133.187 30.168l50.912-50.91 4.242 4.241-50.91 50.913z"/>
            <path fill="#FFB400" d="M154.4-16.5l4.243-4.243 50.911 50.912-4.242 4.243z"/>
            <path fill="#4BB4E6" d="M148.037 11.077L137.43 21.683l-10.608-10.606L137.43.47z"/>
            <path fill="#A885D8" d="M238.95-44.196l-50.946 50.95L192.25 11l50.945-50.95zM171.023-44.196L120.08 6.754 124.324 11l50.945-50.95z"/>
            <path fill="#A885D8" d="M166.778-39.95L217.723 11l4.245-4.246-50.945-50.95zM103.097-44.196L52.153 6.754 56.399 11l50.944-50.95z"/>
            <path fill="#A885D8" d="M98.852-39.95L149.797 11l4.245-4.246-50.945-50.95zM35.171-44.196l-50.944 50.95L-11.528 11l50.945-50.95z"/>
            <path fill="#A885D8" d="M30.926-39.95L81.87 11l4.245-4.246-50.945-50.95zM-37-39.95L13.945 11l4.245-4.246-50.945-50.95z"/>
            <path fill="#000" d="M228.646 180.782l10.607-10.607 10.607 10.607-10.607 10.606z"/>
            <path fill="#4BB4E6" d="M243.496 110.779l-50.911 50.912-4.243-4.243 50.912-50.912z"/>
            <path fill="#FFB400" d="M215.918 163.812l-10.606 10.607-10.607-10.607 10.607-10.606z"/>
            <path fill="#000" d="M228.646 129.871l10.607-10.607 10.607 10.607-10.607 10.607zM226.525 146.841l-4.242 4.242-4.243-4.242 4.243-4.243z"/>
            <path fill="#A885D8" d="M243.496 59.867l-50.911 50.912-4.243-4.243 50.912-50.912z"/>
            <path fill="#4BB4E6" d="M215.918 112.9l-10.606 10.606-10.607-10.606 10.607-10.606z"/>
            <path fill="#000" d="M226.525 95.93l-4.242 4.242-4.243-4.243 4.243-4.243z"/>
            <path fill="#4BB4E6" d="M243.496 8.955l-50.911 50.912-4.243-4.243 50.912-50.91z"/>
            <path fill="#FFB400" d="M215.918 61.988l-10.606 10.606-10.607-10.606 10.607-10.606z"/>
            <path fill="#000" d="M228.646 28.048l10.607-10.607 10.607 10.607-10.607 10.607zM226.525 45.018l-4.242 4.243-4.243-4.243 4.243-4.243z"/>
            <path fill="#4BB4E6" d="M215.918 11.077l-10.606 10.606-10.607-10.606L205.313.47z"/>
            <path fill="#F16E00" d="M73.79 81.08l-4.242 4.243-38.183-37.959 4.242-4.243z"/>
            <path fill="#F16E00" d="M31.298 47.205l17.036-17.036 4.242 4.243-17.035 17.035z"/>
            <path fill="#A885D8" d="M133.044 93.95l38.326-38.325 4.243 4.243-38.326 38.326z"/>
            <path fill="#A885D8" d="M154.401 106.536l-4.243 4.243-17.113-17.114 4.243-4.242z"/>
            <path fill="#FFB400" d="M137.43 136.234L98.952 97.757l4.243-4.243 38.477 38.478z"/>
            <path fill="#FFB400" d="M98.946 98.351l17.27-17.27 4.244 4.242-17.272 17.271z"/>
            <path fill="#4BB4E6" d="M154.25 123.656l17.12-17.12 4.244 4.243-17.12 17.12z"/>
            <path fill="#A885D8" d="M167.129 161.69l4.242-4.242 38.242 38.242-4.242 4.243z"/>
            <path fill="#A885D8" d="M205.186 200l-4.243-4.243 38.31-38.309 4.242 4.243z"/>
            <path fill="#F16E00" d="M239.175 153.128l-16.893-16.893 4.243-4.243 16.893 16.893z"/>
            <path fill="#F16E00" d="M205.312 187.146l-4.242-4.243 38.01-38.01 4.243 4.243z"/>
            <path fill="#FFB400" d="M205.312 136.234l-4.242-4.243 38.055-38.054 4.242 4.243z"/>
            <path fill="#F16E00" d="M205.312 85.323l-4.242-4.243 38.098-38.098 4.243 4.242z"/>
            <path fill="#F16E00" d="M222.283 34.411l4.242-4.243 16.805 16.805-4.242 4.242z"/>
            <path fill="#FFB400" d="M222.283 85.323l4.242-4.243 16.849 16.849-4.242 4.243zM205.312 34.411l-4.242-4.243 31.642-31.643 4.243 4.243z"/>
        </g>
    </g>
</svg>
