<?xml version="1.0" encoding="UTF-8"?>
<svg width="126px" height="94px" viewBox="0 0 126 94" version="1.1" xmlns="http://www.w3.org/2000/svg" xmlns:xlink="http://www.w3.org/1999/xlink">
    <title>topup_ds</title>
    <defs>
        <polygon id="path-1" points="2.49600029e-05 0 29.7024285 0 29.7024285 27.9552033 2.49600029e-05 27.9552033"></polygon>
        <polygon id="path-3" points="0.0171012975 0.184766946 33.6146843 0.184766946 33.6146843 30.4512036 0.0171012975 30.4512036"></polygon>
    </defs>
    <g id="topup_ds" stroke="none" stroke-width="1" fill="none" fill-rule="evenodd">
        <g id="Group-25" transform="translate(36.000000, 11.000000)">
            <polygon id="Fill-1" fill="#EEEEEE" points="0 68.8896081 40.9344048 68.8896081 40.9344048 0 0 0"></polygon>
            <polygon id="Fill-2" fill="#FFFFFF" points="1.99680023 60.1536071 38.9376046 60.1536071 38.9376046 4.74240056 1.99680023 4.74240056"></polygon>
            <path d="M18.2208021,66.3936078 L22.7136027,66.3936078 L22.7136027,61.9008073 L18.2208021,61.9008073 L18.2208021,66.3936078 Z M17.7216021,66.8928079 L23.2128027,66.8928079 L23.2128027,61.4016072 L17.7216021,61.4016072 L17.7216021,66.8928079 Z" id="Fill-3" fill="#FFFFFF"></path>
            <g id="Group-24" transform="translate(6.240001, 17.472002)">
                <path d="M2.49600029e-05,14.2272017 C2.49600029e-05,6.36979275 6.36981771,0 14.2272266,0 C22.0846356,0 28.4544283,6.36979275 28.4544283,14.2272017 C28.4544283,22.0846106 22.0846356,28.4544033 14.2272266,28.4544033 C6.36981771,28.4544033 2.49600029e-05,22.0846106 2.49600029e-05,14.2272017" id="Fill-4" fill="#F16E00"></path>
                <path d="M14.2272266,22.9632027 C12.2973192,22.9632027 10.7328262,21.3987097 10.7328262,19.4688023 C10.7328262,17.5388949 12.2973192,15.9744019 14.2272266,15.9744019 C16.1571341,15.9744019 17.721627,17.5388949 17.721627,19.4688023 C17.721627,21.3987097 16.1571341,22.9632027 14.2272266,22.9632027 L14.2272266,22.9632027 Z M15.9744268,4.99200059 C15.5271436,4.54746294 14.9198667,4.2432005 14.2272266,4.2432005 C13.5350858,4.2432005 12.9732361,4.50228533 12.4800264,4.99200059 L4.74242552,12.7296015 L9.48482608,12.7296015 L9.48482608,19.7184023 C9.48482608,22.3679066 11.5779719,24.4608029 14.2272266,24.4608029 C16.8764813,24.4608029 18.9696272,22.3679066 18.9696272,19.7184023 L18.9696272,12.7296015 L23.7120278,12.7296015 L15.9744268,4.99200059 Z" id="Fill-6" fill="#FFFFFF"></path>
                <path d="M27.9552282,43.9630017 C27.9552282,45.7356611 26.4813401,47.1743556 24.7116759,47.1743556 C22.9402645,47.1743556 21.4656275,45.7356611 21.4656275,43.9630017 L21.4656275,18.4371554 C21.4656275,16.6637472 22.9402645,15.2255519 24.7116759,15.2255519 C26.4813401,15.2255519 27.9552282,16.6637472 27.9552282,18.4371554 L27.9552282,43.9630017 Z" id="Fill-8" fill="#C19372"></path>
                <path d="M35.6928292,43.9402132 C35.6928292,45.7256022 34.2194402,47.1745304 32.4477792,47.1745304 C30.6771166,47.1745304 29.2032284,45.7256022 29.2032284,43.9402132 L29.2032284,38.9264974 C29.2032284,37.141358 30.6771166,35.692929 32.4477792,35.692929 C34.2194402,35.692929 35.6928292,37.141358 35.6928292,38.9264974 L35.6928292,43.9402132 Z" id="Fill-10" fill="#C19372"></path>
                <path d="M43.4304301,43.9402132 C43.4304301,45.7256022 42.0820907,47.1745304 40.3099305,47.1745304 C38.5385191,47.1745304 37.1904293,45.7256022 37.1904293,43.9402132 L37.1904293,38.9264974 C37.1904293,37.141358 38.5385191,35.692929 40.3099305,35.692929 C42.0820907,35.692929 43.4304301,37.141358 43.4304301,38.9264974 L43.4304301,43.9402132 Z" id="Fill-12" fill="#C19372"></path>
                <path d="M51.168031,43.9402132 C51.168031,45.7256022 49.819442,47.1745304 48.0487794,47.1745304 C46.2766192,47.1745304 44.9280302,45.7256022 44.9280302,43.9402132 L44.9280302,38.9264974 C44.9280302,37.141358 46.2766192,35.692929 48.0487794,35.692929 C49.819442,35.692929 51.168031,37.141358 51.168031,38.9264974 L51.168031,43.9402132 Z" id="Fill-14" fill="#C19372"></path>
                <g id="Group-18" transform="translate(21.465603, 38.688005)">
                    <mask id="mask-2" fill="white">
                        <use xlink:href="#path-1"></use>
                    </mask>
                    <g id="Clip-17"></g>
                    <path d="M24.4608278,0 L5.31925119,0 C2.43687005,0 2.49600029e-05,2.26811547 2.49600029e-05,5.15099581 L2.49600029e-05,20.497404 L7.1106306,30.7008036 L24.5826327,30.7008036 C27.465513,30.7008036 29.7024285,28.4723746 29.7024285,25.5892446 L29.7024285,5.15099581 C29.7024285,2.26811547 27.465513,0 24.5826327,0" id="Fill-16" fill="#C19372" mask="url(#mask-2)"></path>
                </g>
                <g id="Group-21" transform="translate(7.488001, 36.192004)">
                    <mask id="mask-4" fill="white">
                        <use xlink:href="#path-3"></use>
                    </mask>
                    <g id="Clip-20"></g>
                    <path d="M21.9997965,10.1100242 C18.9851274,10.1100242 16.2447686,11.2639252 14.1798276,13.1471574 L6.41152587,1.71996884 C5.32676415,0.120781454 3.15174949,-0.296300195 1.5525621,0.788211933 C-0.0473740856,1.87247446 -0.463706935,4.04773872 0.620555593,5.6481741 L18.4010633,31.8022636 C19.0432842,32.7507437 20.0766283,33.2050157 21.1399244,33.250443 L21.1421708,33.1967789 L21.177614,33.1967789 C21.2672204,33.1967789 21.3565772,33.2551854 21.4466828,33.250443 C21.6273933,33.2499438 21.8101005,33.2776494 21.9940557,33.2776494 C28.4095253,33.2776494 33.6146843,28.1289 33.6146843,21.7139296 C33.6146843,15.297212 28.4152661,10.1100242 21.9997965,10.1100242" id="Fill-19" fill="#C19372" mask="url(#mask-4)"></path>
                </g>
                <path d="M8.10860639,41.8400536 L9.50362096,43.8927642 L13.1450358,41.3718039 L11.699602,39.2831509 C11.1247731,38.45373 9.98784502,38.2470611 9.15842412,38.8213908 L7.50931672,39.9640597 C7.52429273,40.6132694 7.71798235,41.2637271 8.10860639,41.8400536" id="Fill-22" fill="#C19372"></path>
            </g>
        </g>
    </g>
</svg>