<svg xmlns="http://www.w3.org/2000/svg" width="126" height="94" viewBox="0 0 126 94">
    <g fill="none" fill-rule="evenodd">
        <g>
            <g>
                <g>
                    <g>
                        <g>
                            <path fill="#EEE" d="M18.074 40.598L52.941 53.066 67.065 13.564 32.198 1.095z" transform="translate(-281 -3517) translate(67 3509) translate(214 8) translate(21 5)"/>
                            <path fill="#DDD" d="M22.263 42.096L57.13 54.564 71.254 15.062 36.386 2.594z" transform="translate(-281 -3517) translate(67 3509) translate(214 8) translate(21 5)"/>
                            <g>
                                <path fill="#FF7900" d="M63.717 15.296l.75.178C65.934 9.252 62.493 2.934 56.466.78c-6.027-2.155-12.692.548-15.503 6.287l.692.341c2.638-5.386 8.894-7.925 14.552-5.902 5.657 2.024 8.885 7.952 7.51 13.79" transform="translate(-281 -3517) translate(67 3509) translate(214 8) translate(21 5)"/>
                                <path fill="#FF7900" d="M42.678 7.746c-.316.736-1.168 1.077-1.905.763-.737-.317-1.078-1.17-.762-1.905.315-.737 1.168-1.078 1.904-.763.736.316 1.078 1.168.763 1.905M65.158 15.9c-.316.736-1.168 1.078-1.905.764-.736-.318-1.078-1.17-.761-1.905.315-.737 1.168-1.079 1.903-.763.737.316 1.078 1.168.763 1.904" transform="translate(-281 -3517) translate(67 3509) translate(214 8) translate(21 5)"/>
                                <path fill="#EEE" d="M13.457 72.612L56.203 60.865 42.894 12.434 0.146 24.182z" transform="translate(-281 -3517) translate(67 3509) translate(214 8) translate(21 5)"/>
                                <path fill="silver" d="M18.592 71.201L61.338 59.453 48.03 11.023 5.282 22.772z" transform="translate(-281 -3517) translate(67 3509) translate(214 8) translate(21 5)"/>
                                <path fill="#595959" d="M40.802 16.434l.858-.342C38.82 8.986 31.106 5.159 23.716 7.19c-7.388 2.033-12.063 9.263-10.874 16.82l.914-.142c-1.117-7.094 3.27-13.88 10.206-15.786 6.935-1.907 14.175 1.684 16.84 8.352" transform="translate(-281 -3517) translate(67 3509) translate(214 8) translate(21 5)"/>
                                <path fill="#595959" d="M39.553 16.745c.309.908 1.295 1.393 2.204 1.083.906-.31 1.391-1.299 1.08-2.204-.31-.91-1.297-1.393-2.204-1.082-.908.31-1.391 1.296-1.08 2.203M14.99 23.496c.197.94-.405 1.86-1.343 2.058-.94.196-1.86-.405-2.056-1.343-.197-.939.404-1.859 1.342-2.056.938-.197 1.86.403 2.057 1.341" transform="translate(-281 -3517) translate(67 3509) translate(214 8) translate(21 5)"/>
                                <path fill="#FFF" d="M23.837 52.673L47.422 46.189 42.309 27.589 18.725 34.07z" transform="translate(-281 -3517) translate(67 3509) translate(214 8) translate(21 5)"/>
                                <path fill="#FF7900" d="M85.995 32.267L83.373 81.139 34.501 78.517 37.123 29.645z" transform="translate(-281 -3517) translate(67 3509) translate(214 8) translate(21 5)"/>
                                <path fill="#000" d="M46.266 33.591l-1.006-.155c1.311-7.932 8.674-13.614 17.122-13.222 8.449.393 15.247 6.733 15.822 14.753l-1.016.061c-.535-7.524-6.922-13.479-14.851-13.846-7.925-.368-14.84 4.966-16.071 12.41" transform="translate(-281 -3517) translate(67 3509) translate(214 8) translate(21 5)"/>
                                <path fill="#FFD200" d="M47.687 33.626c-.109 1.002-1.057 1.725-2.108 1.613-1.053-.114-1.817-1.011-1.699-2.016.107-.997 1.06-1.713 2.102-1.6 1.054.104 1.82 1.008 1.705 2.003M75.772 34.93c.015 1.008.89 1.814 1.952 1.801 1.06-.013 1.9-.835 1.877-1.85-.017-1-.887-1.802-1.947-1.788-1.06.007-1.9.835-1.882 1.836" transform="translate(-281 -3517) translate(67 3509) translate(214 8) translate(21 5)"/>
                            </g>
                        </g>
                    </g>
                </g>
            </g>
        </g>
    </g>
</svg>
