<?xml version="1.0" encoding="UTF-8"?>
<svg width="126px" height="94px" viewBox="0 0 126 94" version="1.1" xmlns="http://www.w3.org/2000/svg" xmlns:xlink="http://www.w3.org/1999/xlink">
    <title>bundles</title>
    <defs>
        <polygon id="path-1" points="0 0.1139 10.25 0.1139 10.25 54.864 0 54.864"></polygon>
        <polygon id="path-3" points="0 0.1139 13.75 0.1139 13.75 60.364 0 60.364"></polygon>
        <polygon id="path-5" points="0 0.1139 11 0.1139 11 87.864 0 87.864"></polygon>
        <polygon id="path-7" points="0 0.1139 11.25 0.1139 11.25 70.364 0 70.364"></polygon>
        <polygon id="path-9" points="0 96.114 128 96.114 128 0.114 0 0.114"></polygon>
    </defs>
    <g id="bundles" stroke="none" stroke-width="1" fill="none" fill-rule="evenodd">
        <g id="Group-43" transform="translate(-2.000000, -2.000000)">
            <polygon id="Fill-1" fill="#C0C0C0" points="47.999925 30.7499 47.999925 37.2499 46.750175 37.2499 46.750175 45.7499 45.999925 45.7499 45.999925 96.2499 60.000175 96.2499 60.000175 45.7499 59.249925 45.7499 59.249925 37.2499 58.000175 37.2499 58.000175 30.7499"></polygon>
            <g id="Group-42" transform="translate(0.000000, 0.136000)">
                <path d="M56.75,27.6139 L55.75,27.6139 C55.40425,26.8809 55.003,26.0319 54.7065,25.13265 C54.12425,23.36915 53.6,21.35915 53.25,20.1139 L53,8.8639 L52.75,20.1139 C52.4005,21.35865 51.73375,23.3659 51.1505,25.13265 C50.86375,26.0014 50.5845,26.89915 50.25,27.6139 L49.25,27.6139 L48.5,30.6139 L57.5,30.6139 L56.75,27.6139 Z" id="Fill-2" fill="#C0C0C0"></path>
                <g id="Group-6" transform="translate(39.250000, 41.250000)">
                    <mask id="mask-2" fill="white">
                        <use xlink:href="#path-1"></use>
                    </mask>
                    <g id="Clip-5"></g>
                    <polygon id="Fill-4" fill="#C0C0C0" mask="url(#mask-2)" points="0 0.1139 0 9.8639 0.5 9.8639 0.5 81.8639 9.75 81.8639 9.75 9.8639 10.25 9.8639 10.25 0.1139"></polygon>
                </g>
                <g id="Group-9" transform="translate(91.250000, 35.750000)">
                    <mask id="mask-4" fill="white">
                        <use xlink:href="#path-3"></use>
                    </mask>
                    <g id="Clip-8"></g>
                    <polygon id="Fill-7" fill="#C0C0C0" mask="url(#mask-4)" points="0 0.1139 0 9.8639 0.5 9.8639 0.5 81.8639 13.2515 81.8639 13.2515 9.8639 13.75 9.8639 13.75 0.1139"></polygon>
                </g>
                <g id="Group-12" transform="translate(69.250000, 8.250000)">
                    <mask id="mask-6" fill="white">
                        <use xlink:href="#path-5"></use>
                    </mask>
                    <g id="Clip-11"></g>
                    <polygon id="Fill-10" fill="#C0C0C0" mask="url(#mask-6)" points="10.5 26.3639 10.5 15.1139 10 15.1139 5.5 0.1139 1 15.1139 0.5 15.1139 0.5 26.3639 0 26.3639 0 98.8639 11 98.8639 11 26.3639"></polygon>
                </g>
                <g id="Group-15" transform="translate(20.500000, 25.750000)">
                    <mask id="mask-8" fill="white">
                        <use xlink:href="#path-7"></use>
                    </mask>
                    <g id="Clip-14"></g>
                    <polygon id="Fill-13" fill="#C0C0C0" mask="url(#mask-8)" points="10.75 26.3639 10.75 15.1139 10.25 15.1139 5.75 0.1139 1 15.1139 0.53475 15.01965 0.5 26.3639 0 26.3639 0 73.8639 11.25 73.8639 11.25 26.3639"></polygon>
                </g>
                <mask id="mask-10" fill="white">
                    <use xlink:href="#path-9"></use>
                </mask>
                <g id="Clip-17"></g>
                <polygon id="Fill-16" fill="#EEEEEE" mask="url(#mask-10)" points="31 129.364 43.2635 129.364 43.2635 48.364 31 48.364"></polygon>
                <polygon id="Fill-18" fill="#EEEEEE" mask="url(#mask-10)" points="14 66.1139 14 61.1139 4 61.1139 4 66.1139 0 66.1139 0 128.6139 23 128.6139 23 66.1139"></polygon>
                <polygon id="Fill-19" fill="#EEEEEE" mask="url(#mask-10)" points="77.75 128.6139 93.75 128.6139 93.75 33.3639 77.75 47.6139"></polygon>
                <polygon id="Fill-20" fill="#EEEEEE" mask="url(#mask-10)" points="71.75 29.6139 54.25 33.6139 54.25 128.6139 71.75 128.6139"></polygon>
                <polygon id="Fill-21" fill="#EEEEEE" mask="url(#mask-10)" points="124.5 62.6139 124.5 57.6139 110.5 57.6139 110.5 62.6139 101 62.6139 101 128.6139 128 128.6139 128 62.6139"></polygon>
                <path d="M84.8247,69.498425 C84.8247,71.740925 89.24995,72.252175 89.24995,75.780925 C89.24995,75.780925 81.66345,85.363925 56.04245,85.363925 C53.91545,85.363925 51.99995,83.545175 51.99995,81.301925 L51.99995,65.426175 C51.99995,63.181925 53.8107,61.363925 56.04245,61.363925 L75.5847,61.363925 C77.8172,61.363925 79.62695,63.183175 79.62695,65.426175 L84.8247,69.498425 Z" id="Fill-22" fill="#F5CFB0" mask="url(#mask-10)"></path>
                <path d="M58.5155,61.562625 L52,60.113875 L52,75.202625 C52,77.914625 54.21125,80.113875 56.9385,80.113875 L66.1175,80.113875 C66.6875,78.534875 67,76.834125 67,75.060375 C67,69.136625 63.538,63.982875 58.5155,61.562625" id="Fill-23" fill="#F5CFB0" mask="url(#mask-10)"></path>
                <path d="M85.952875,71.825575 C85.943875,79.880575 74.197875,79.8653251 72.136375,79.8653251 C70.052625,79.8653251 58.373125,79.578325 58.249875,71.795075 L58.296375,30.193575 C58.300875,26.971325 60.929875,24.362075 64.171375,24.3655715 L80.137875,24.383325 C83.379375,24.386825 86.003125,27.002325 85.999878,30.224325 L85.952875,71.825575 Z" id="Fill-24" fill="#000000" mask="url(#mask-10)"></path>
                <polygon id="Fill-25" fill="#F16E00" mask="url(#mask-10)" points="83.957275 68.8639 60.500025 68.83765 60.542775 29.8639 84.000025 29.88965"></polygon>
                <path d="M73.9999995,72.865375 C73.9985,73.970375 73.10275,74.865375 71.998,74.8638737 C70.89325,74.863125 69.99925,73.966125 69.9999995,72.861125 C70.0015,71.756875 70.89775,70.862625 72.002,70.8638737 C73.10775,70.865125 74.0015,71.761625 73.9999995,72.865375" id="Fill-26" fill="#FFFFFF" mask="url(#mask-10)"></path>
                <path d="M55.257575,63.3639 C53.458075,63.3639 52.000075,61.9089 52.000075,60.1144 C52.000075,58.31915 53.458075,56.8639 55.257575,56.8639 L64.492825,56.8639 C66.292575,56.8639 67.750075,58.31815 67.750075,60.1144 C67.750075,61.9089 66.291825,63.3639 64.492825,63.3639 L55.257575,63.3639 Z" id="Fill-27" fill="#F5CFB0" mask="url(#mask-10)"></path>
                <path d="M82.78515,76.6139 C81.1089,76.6139 79.7499,75.27115 79.7499,73.61365 C79.7499,71.95715 81.1089,70.6144 82.78515,70.6139 L87.21665,70.6139 C88.89065,70.6139 90.2499,71.95715 90.2499,73.61365 C90.2499,75.27115 88.89065,76.6139 87.21665,76.6139 L82.78515,76.6139 Z" id="Fill-28" fill="#F5CFB0" mask="url(#mask-10)"></path>
                <path d="M82.78515,69.8639 C81.1089,69.8639 79.7499,68.5209 79.7499,66.8644 C79.7499,65.2074 81.1089,63.8639 82.78515,63.8639 L87.21665,63.8639 C88.89065,63.8639 90.2499,65.2074 90.2499,66.8644 C90.2499,68.5209 88.89065,69.8639 87.21665,69.8639 L82.78515,69.8639 Z" id="Fill-29" fill="#F5CFB0" mask="url(#mask-10)"></path>
                <path d="M82.78515,63.1139 C81.1089,63.1139 79.7499,61.7719 79.7499,60.1149 C79.7499,58.4569 81.1089,57.1139 82.78515,57.1144 L87.21665,57.1139 C88.89065,57.1144 90.2499,58.4569 90.2499,60.1149 C90.2499,61.7719 88.89065,63.1139 87.21665,63.1139 L82.78515,63.1139 Z" id="Fill-30" fill="#F5CFB0" mask="url(#mask-10)"></path>
                <path d="M83.83325,57.996975 L81.99125,57.996975 C81.25925,57.996975 80.666,58.590725 80.666,59.321475 L80.666,60.912725 C80.666,61.644975 81.25925,62.236975 81.99125,62.236975 L83.83325,62.236975 L83.83325,57.996975 Z" id="Fill-31" fill="#F6CFAE" mask="url(#mask-10)"></path>
                <path d="M62.89905,62.364875 L64.9348,62.364875 C65.7428,62.364875 66.3988,61.711375 66.3988,60.903875 L66.3988,59.150625 C66.3988,58.343375 65.7428,57.690125 64.9348,57.690125 L62.89905,57.690125 L62.89905,62.364875 Z" id="Fill-32" fill="#F6CFAE" mask="url(#mask-10)"></path>
                <path d="M83.83325,64.775775 L81.99125,64.775775 C81.259,64.775775 80.666,65.369525 80.666,66.100525 L80.666,67.692775 C80.666,68.423525 81.259,69.016525 81.99125,69.016525 L83.83325,69.016525 L83.83325,64.775775 Z" id="Fill-33" fill="#F6CFAE" mask="url(#mask-10)"></path>
                <path d="M83.83325,71.555325 L81.99125,71.554575 C81.25925,71.554575 80.666,72.147825 80.666,72.879825 L80.666,74.470575 C80.666,75.203075 81.259,75.796325 81.99125,75.796325 L83.83325,75.796325 L83.83325,71.555325 Z" id="Fill-34" fill="#F6CFAE" mask="url(#mask-10)"></path>
                <path d="M56.211425,93.531125 C60.197425,93.933125 62.931675,95.581625 67.060175,95.338375 C69.432675,95.199125 73.195925,94.804125 75.499925,94.454375 L74.664175,80.613875 L55.499925,81.762625 L56.211425,93.531125 Z" id="Fill-35" fill="#F5CFB0" mask="url(#mask-10)"></path>
                <path d="M82.78515,56.3639 C81.1089,56.3639 79.7499,55.02015 79.7499,53.3639 C79.7499,51.7069 81.1089,50.3639 82.78515,50.3639 L87.21665,50.3639 C88.89065,50.3639 90.2499,51.7069 90.2499,53.3639 C90.2499,55.02015 88.89065,56.3639 87.21665,56.3639 L82.78515,56.3639 Z" id="Fill-36" fill="#F5CFB0" mask="url(#mask-10)"></path>
                <path d="M83.83325,51.065075 L81.99125,51.065075 C81.259,51.065075 80.666,51.658325 80.666,52.389575 L80.666,53.981075 C80.666,54.712575 81.25925,55.305075 81.99125,55.305075 L83.83325,55.305075 L83.83325,51.065075 Z" id="Fill-37" fill="#F6CFAE" mask="url(#mask-10)"></path>
                <polygon id="Fill-38" fill="#666666" mask="url(#mask-10)" points="54.75 94.364 76.25 94.364 76.25 87.864 54.75 87.864"></polygon>
                <path d="M80,213.249875 L79.99925,99.025875 C80,96.036625 77.578,93.6138749 74.59,93.6138749 L57.15925,93.6138749 C54.1705,93.6138749 51.75,96.036625 51.75,99.025875 L51.75,213.249875 L80,213.249875 Z" id="Fill-39" fill="#666666" mask="url(#mask-10)"></path>
                <path d="M74.176525,43.7815 C74.057775,43.74525 74.108775,43.69775 74.163025,43.61725 C74.163025,43.507 74.127025,43.499 74.252275,43.47575 C74.361025,43.351 74.470775,43.3575 74.612025,43.44425 C74.612025,43.50575 74.594025,43.48025 74.551775,43.519 C74.551775,43.70775 74.358775,43.7645 74.176525,43.7815 M74.587275,43.15 C74.611775,43.11125 74.660025,43.085 74.702025,43.06925 C74.728275,43.05925 74.796025,43.03725 74.824025,43.0535 C74.859275,43.074 74.822775,43.12175 74.875025,43.13 C74.912775,43.136 74.952775,43.116 74.990275,43.132 C75.058525,43.16125 74.983025,43.21175 74.974275,43.248 C74.965525,43.28375 74.990525,43.32125 75.013275,43.34675 C75.069525,43.411 75.169275,43.449 75.210775,43.525 C75.248275,43.5935 75.264525,43.62375 75.348025,43.635 C75.388275,43.6405 75.403775,43.6365 75.410775,43.67725 C75.424025,43.75625 75.370775,43.84375 75.291275,43.8535 C75.202525,43.86425 75.095025,43.81225 75.012775,43.86625 C74.996275,43.877 74.948275,43.8735 74.926025,43.883 C74.854275,43.91325 74.802025,43.98225 74.724775,44.00125 C74.659275,44.0175 74.661525,43.96725 74.664275,43.915 C74.667525,43.8515 74.793525,43.815 74.785275,43.77225 C74.777775,43.73375 74.693775,43.771 74.704275,43.721 C74.708775,43.701 74.744775,43.693 74.755525,43.67625 C74.770275,43.653 74.756025,43.62675 74.766275,43.60425 C74.786275,43.559 74.844275,43.574 74.882275,43.5645 C74.916525,43.55625 74.849525,43.46725 74.837775,43.46 C74.798025,43.4355 74.743775,43.435 74.698775,43.4325 C74.679775,43.26825 74.620275,43.39425 74.594025,43.2715 C74.583275,43.223 74.554525,43.20175 74.587275,43.15" id="Fill-40" fill="#FFFFFF" mask="url(#mask-10)"></path>
                <path d="M77.932625,45.8528 C77.855125,45.8323 77.767375,45.78705 77.688125,45.78205 C77.587625,45.77555 77.497625,45.82455 77.472125,45.9233 C77.462375,45.96255 77.458625,46.01155 77.417125,46.03105 C77.347375,46.0638 77.267125,45.99755 77.200125,45.98455 C77.147375,45.97405 77.092625,45.9683 77.042625,45.94705 C77.019625,45.9373 76.999125,45.9248 76.980875,45.9073 C76.966875,45.8933 76.950875,45.85205 76.935125,45.84405 C76.849625,45.80105 76.773875,45.78605 76.679625,45.78105 C76.598125,45.7768 76.524125,45.76205 76.457125,45.7123 C76.348875,45.6323 76.478125,45.6048 76.458625,45.5113 C76.455625,45.49705 76.422125,45.45855 76.424625,45.4488 C76.460625,45.3018 76.300125,45.33655 76.186875,45.36305 C75.975875,45.3833 75.710125,45.30955 75.528125,45.39355 C75.374125,45.4003 75.207125,45.43305 75.079625,45.5243 C75.016625,45.56955 74.857625,45.58555 74.786125,45.5608 C74.786125,45.5608 74.738875,45.55105 74.704875,45.55255 C74.627125,45.6068 74.488375,45.6323 74.437875,45.68705 C74.356875,45.7748 74.326125,45.88255 74.263125,45.9838 C74.158375,46.15305 73.948125,46.2478 73.807875,46.3833 C73.632625,46.5523 73.537875,46.67405 73.540875,46.9203 C73.543375,47.13355 73.525875,47.3348 73.521125,47.5448 C73.514625,47.80505 73.649125,47.83755 73.823125,48.02105 C74.019875,48.22855 74.106125,48.45455 74.403125,48.52855 C74.644375,48.58855 74.948125,48.58405 75.188125,48.5283 C75.488625,48.45805 75.639375,48.36005 75.930375,48.4858 C76.050375,48.53755 76.386875,48.60055 76.459625,48.6928 C76.538625,48.7928 76.460375,48.98955 76.465875,49.1028 C76.474375,49.2798 76.516625,49.3663 76.616875,49.5083 C76.776375,49.73305 76.978875,49.96705 76.931125,50.26205 C76.891125,50.5118 76.645125,50.6733 76.738875,50.94605 C76.820875,51.18405 76.990375,51.32705 77.049625,51.58955 C77.097875,51.8043 77.148875,51.85855 77.258375,52.02155 C77.338875,52.1418 77.438625,52.53005 77.610125,52.64305 C76.327625,54.5048 74.181875,55.72605 71.750125,55.72605 C70.376875,55.72605 69.095375,55.3358 68.008375,54.66205 C68.016875,54.62655 68.020875,54.5923 68.018375,54.56355 C68.005875,54.42955 67.926375,54.5003 67.834125,54.46805 C67.663875,54.40855 67.964625,54.05455 67.951625,53.94055 C67.946375,53.8928 67.907375,53.85305 67.905625,53.8018 C67.900875,53.6628 68.171875,53.4258 68.288625,53.37605 C68.437125,53.31305 68.535125,53.19255 68.670625,53.1133 C68.793875,53.04105 68.876125,52.9228 68.973625,52.82205 C69.072375,52.7203 69.190125,52.6458 69.311375,52.57305 C69.480125,52.4718 69.604125,52.39405 69.709625,52.2223 C69.995875,51.7558 70.501125,51.5993 70.830875,51.1968 C71.039375,50.94305 71.081375,50.5728 71.240125,50.28555 C71.582625,49.6668 71.296625,49.4228 70.676625,49.2848 C70.320125,49.20555 70.095125,49.06505 69.824125,48.8223 C69.522875,48.55205 69.200875,48.4633 68.870875,48.25155 C68.724375,48.15755 68.626125,48.0153 68.451875,47.96605 C68.312375,47.9263 68.152625,47.92505 68.008875,47.9098 C67.814875,47.8893 67.626375,47.85455 67.430625,47.8673 C67.348375,47.7423 67.163125,47.8593 67.084125,47.91055 C66.956625,47.99355 66.845625,48.0293 66.692875,48.00705 C66.400625,47.96455 66.194625,47.7538 65.974625,47.57505 C65.854125,47.47705 65.732375,47.38055 65.583125,47.33105 C65.583125,47.33105 65.633375,46.9368 65.567375,46.8803 C65.400375,46.73805 65.206875,47.04805 65.067125,47.10405 C64.962875,47.1458 64.871875,47.1498 64.794875,47.12605 C64.883375,46.7118 65.007875,46.31105 65.164875,45.92655 C65.495125,45.8603 65.869875,45.9158 66.095375,46.08955 C66.144125,46.12705 66.312875,46.37905 66.372375,46.36105 C66.469125,46.33155 66.400375,46.0288 66.404625,45.9663 C66.416375,45.7763 66.427875,45.69455 66.613875,45.5853 C66.718125,45.52405 66.789875,45.43005 66.841125,45.32205 C66.884625,45.23055 66.897875,45.14855 66.996375,45.1008 C67.087375,45.0563 67.151375,44.97555 67.230875,44.9148 C67.324125,44.8433 67.432375,44.79555 67.543375,44.7583 C67.578125,44.74655 67.640875,44.52855 67.708875,44.48555 C67.880125,44.37705 68.141375,44.4863 68.324875,44.4718 C68.402375,44.46555 68.533625,44.43055 68.547375,44.3358 C68.568125,44.19405 68.279125,44.13205 68.190125,44.07255 C68.169125,44.05855 68.148625,44.0443 68.127125,44.0313 C68.115625,44.0243 68.103875,44.0178 68.091625,44.01155 C68.041625,43.9858 67.991375,43.9608 67.934625,43.9538 C67.921375,43.9523 67.908625,43.95405 67.896375,43.9518 C67.891125,43.9508 67.870875,43.94705 67.879875,43.9408 L67.902125,43.9373 C67.912875,43.9358 67.923625,43.9338 67.934375,43.93205 C67.956375,43.92805 67.978875,43.9248 68.001375,43.92405 C68.079875,43.92205 68.156875,43.94305 68.233375,43.9588 C68.271125,43.9668 68.309375,43.9743 68.347875,43.97755 C68.368125,43.9793 68.389125,43.9808 68.408625,43.9753 C68.424125,43.9713 68.462875,43.98305 68.459875,43.96955 C68.452125,43.95505 68.421375,43.9428 68.430375,43.9223 C68.436375,43.9088 68.457625,43.9018 68.470125,43.89555 C68.486375,43.88755 68.503875,43.88155 68.521125,43.87605 C68.598375,43.85155 68.673625,43.8223 68.752625,43.8043 C68.790375,43.7958 68.828875,43.7898 68.867625,43.78955 C68.884125,43.78955 68.900125,43.7903 68.916625,43.79205 C68.930625,43.7938 68.955625,43.7933 68.966875,43.80355 C68.979625,43.81555 68.964375,43.8318 68.956875,43.84155 C68.944875,43.85655 68.933875,43.87155 68.924625,43.88855 C68.898375,43.93555 68.878625,43.9893 68.871125,44.0428 C68.864875,44.08755 68.876875,44.13955 68.916125,44.1678 C69.055875,44.2353 69.353375,44.37605 69.466875,44.17205 C69.546625,44.0288 69.270375,43.97605 69.203875,43.85305 C69.148375,43.7508 69.192375,43.6218 69.113125,43.5218 C69.029875,43.4173 68.892875,43.4178 68.785875,43.3538 C68.633375,43.2623 68.552875,43.08555 68.404875,42.98905 C68.181375,42.84355 68.073875,42.9888 67.837875,42.97005 C67.735375,42.9618 67.665125,42.90505 67.593875,42.8443 C67.698125,42.76905 67.804125,42.6968 67.912625,42.6273 C67.974125,42.63105 68.021375,42.6313 68.010625,42.6243 C67.999375,42.61655 67.979125,42.60805 67.956625,42.59905 C67.981875,42.5828 68.007125,42.56605 68.032625,42.5503 C68.100875,42.5628 68.168375,42.56505 68.187125,42.52155 C68.289625,42.44355 68.337875,42.44555 68.470625,42.44555 C68.587125,42.3638 68.698875,42.3003 68.732625,42.1733 C69.015375,42.04055 69.307875,41.9253 69.609625,41.83005 C69.623625,41.83305 69.636125,41.8363 69.644375,41.8403 C69.669625,41.85305 69.700125,41.8563 69.724125,41.8718 C69.765375,41.89855 69.677875,41.9148 69.664625,41.92105 C69.636375,41.9348 69.608875,41.9493 69.582125,41.9653 C69.548125,41.9853 69.515375,42.00855 69.489875,42.0388 C69.469875,42.0628 69.455875,42.09155 69.452875,42.12305 C69.449125,42.16005 69.461125,42.1968 69.477125,42.23005 C69.500375,42.2778 69.531875,42.3213 69.562875,42.36405 C69.567125,42.3698 69.571125,42.3758 69.575375,42.38105 C69.751625,42.5958 70.170375,42.9033 70.466125,42.8693 C70.791375,42.83205 70.764125,42.41905 71.073625,42.3028 C71.383625,42.1868 71.705125,42.1053 72.028625,42.03805 C72.118375,42.0193 72.205875,41.98805 72.292625,41.9593 C72.414625,41.91905 72.538875,41.8928 72.665125,41.8673 C72.686375,41.86305 72.708125,41.8618 72.729375,41.85855 C72.736125,41.85755 72.787125,41.8488 72.765125,41.83605 C72.750125,41.8273 72.730125,41.8263 72.713125,41.82305 C72.693875,41.81955 72.674125,41.8168 72.654625,41.81405 C72.618375,41.8088 72.580625,41.8043 72.547375,41.78905 C72.538875,41.78505 72.521625,41.7813 72.524375,41.76955 C72.527375,41.7548 72.550375,41.7583 72.560875,41.75905 C72.603375,41.76205 72.647125,41.75705 72.689875,41.75705 C72.735125,41.75705 72.780375,41.75705 72.824875,41.7508 C72.846375,41.74755 72.867625,41.74655 72.889375,41.74205 C72.899625,41.7398 72.916375,41.7428 72.915375,41.72755 C72.913875,41.7073 72.901625,41.6853 72.887125,41.67105 C72.879875,41.66405 72.870375,41.6598 72.863625,41.6518 C72.853375,41.64005 72.858375,41.6328 72.865125,41.6208 C72.870625,41.61155 72.876375,41.60205 72.881875,41.5923 C74.023125,41.77505 75.073625,42.2288 75.965625,42.8863 C75.989375,42.95455 76.060375,43.0208 76.202125,43.0773 C76.207625,43.07955 76.212625,43.0803 76.218125,43.0818 C76.261125,43.1168 76.303625,43.1523 76.346125,43.1883 C76.340875,43.19455 76.334375,43.20005 76.330125,43.2068 C76.279125,43.2878 76.407125,43.4043 76.354375,43.4843 C76.285375,43.58855 76.114625,43.5083 76.017625,43.5508 C75.821375,43.6373 75.650625,43.8238 75.440875,43.9183 C75.345625,43.96105 75.232375,43.95255 75.130875,43.96455 C75.064375,43.9723 74.954375,43.98055 74.917125,44.0463 C74.873625,44.12355 75.114875,44.2223 75.159875,44.25355 C75.283375,44.3388 75.341875,44.44805 75.201875,44.55505 C75.027375,44.6888 74.707875,44.43155 74.515125,44.55755 C74.393625,44.6373 74.322625,45.0428 74.439625,45.17805 C74.486375,45.23155 74.560625,45.25755 74.626125,45.28605 C74.717375,45.32605 74.915875,45.4158 75.011875,45.35955 C75.039875,45.34305 75.054625,45.3148 75.085625,45.29955 C75.114375,45.2853 75.146875,45.2783 75.170625,45.2558 C75.210625,45.2188 75.193875,45.15605 75.210125,45.10805 C75.226625,45.0593 75.265125,45.0333 75.299625,44.9983 C75.323125,44.9743 75.340625,44.9403 75.368125,44.9208 C75.412375,44.89005 75.473875,44.9008 75.522375,44.8788 C75.601375,44.84305 75.557375,44.7403 75.628125,44.6933 C75.677625,44.6603 75.737125,44.6803 75.788875,44.6958 C75.929875,44.73855 76.020875,44.6533 76.155625,44.6428 C76.168875,44.6418 76.191625,44.61855 76.205875,44.61305 C76.250375,44.5948 76.310375,44.5913 76.348625,44.6238 C76.379875,44.6503 76.390375,44.69555 76.416375,44.72705 C76.456125,44.77505 76.521125,44.79905 76.572625,44.83255 C76.630625,44.8708 76.667625,44.8798 76.731125,44.89705 C76.800625,44.91555 76.859875,44.98005 76.924375,45.01305 C76.975125,45.0388 77.055125,45.0758 77.053875,45.14355 C77.052375,45.26205 76.854375,45.23055 76.784875,45.23355 C76.760125,45.23455 76.657375,45.2418 76.648625,45.2678 C76.635625,45.30605 76.811875,45.3688 76.838875,45.37355 C76.915375,45.3863 76.947375,45.33255 76.999125,45.2873 C77.042625,45.24905 77.100875,45.2253 77.133625,45.1758 C77.160625,45.13455 77.132125,45.0893 77.138125,45.04555 C77.143125,45.0088 77.173375,45.00905 77.184625,44.9798 C77.205375,44.9248 77.084125,44.87655 77.049875,44.8638 C77.017375,44.85155 76.983375,44.84255 76.949375,44.83555 C76.927875,44.83105 76.880625,44.83305 76.862625,44.8213 C76.797375,44.77755 76.788875,44.7073 76.725875,44.6573 C76.498125,44.54555 76.685375,44.3973 76.787625,44.5288 C76.947125,44.53555 76.985625,44.7028 77.160625,44.7163 C77.243875,44.82205 77.345125,44.7653 77.405625,44.8993 C77.416375,45.0743 77.451375,45.07205 77.607125,45.1813 C77.660625,45.21905 77.638625,45.4068 77.751125,45.37605 C77.787125,45.36655 77.829125,45.3223 77.857875,45.2998 C77.874875,45.28655 77.914125,45.26705 77.924625,45.2488 C77.957875,45.19205 77.854125,45.1883 77.833625,45.15355 C77.789625,45.0768 77.817875,45.0258 77.871875,44.99405 C78.052625,45.2998 78.211125,45.6203 78.345625,45.95305 C78.302375,45.94005 78.261375,45.9298 78.212875,45.92905 C78.106125,45.92755 78.032125,45.87905 77.932625,45.8528 M67.476875,51.85555 C67.432125,52.07555 67.455875,52.2923 67.418875,52.5098 C67.384375,52.7173 67.278625,52.90205 67.201625,53.0953 C67.179125,53.15155 67.149125,53.2233 67.162375,53.2853 C67.183125,53.38405 67.287625,53.39805 67.231875,53.5113 C67.191875,53.59305 67.129875,53.6658 67.078875,53.7408 C67.050875,53.78255 67.024125,53.82855 67.025125,53.8803 C67.025375,53.90055 67.031625,53.91955 67.037375,53.93855 C65.566125,52.63555 64.637875,50.73355 64.637875,48.6138 C64.637875,48.2018 64.674875,47.79855 64.742125,47.40555 C64.835875,47.3758 64.889875,47.3633 64.969875,47.46555 C65.064125,47.5863 65.305375,47.64405 65.447375,47.67105 C65.528875,47.68655 65.604125,47.68205 65.669375,47.7368 C65.727625,47.7858 65.760375,47.86155 65.808625,47.9188 C65.906375,48.0348 66.007625,48.1183 66.156875,48.15505 C66.325625,48.19655 66.513375,48.19205 66.662375,48.29255 C66.889125,48.44605 66.737375,48.65705 66.636375,48.82055 C66.518125,49.01155 66.436625,49.19655 66.422875,49.42605 C66.394625,49.89455 66.712625,50.31455 67.063125,50.59255 C67.251625,50.7423 67.478875,50.89655 67.542625,51.14255 C67.605125,51.38255 67.524125,51.62155 67.476875,51.85555 M71.750125,40.3638 C67.193625,40.3638 63.500125,44.05755 63.500125,48.6138 C63.500125,53.1703 67.193625,56.8638 71.750125,56.8638 C76.306375,56.8638 80.000125,53.1703 80.000125,48.6138 C80.000125,44.05755 76.306375,40.3638 71.750125,40.3638" id="Fill-41" fill="#FFFFFF" mask="url(#mask-10)"></path>
            </g>
        </g>
    </g>
</svg>